<svg preserveAspectRatio="none" overflow="visible" style="display: block;" width="88" height="88" viewBox="0 0 88 88" fill="none" xmlns="http://www.w3.org/2000/svg">
<g id="bxl:cursor-ai">
<path id="Vector" d="M74.876 24.677L45.5426 7.73697C45.0812 7.46622 44.5559 7.32349 44.0209 7.32349C43.486 7.32349 42.9607 7.46622 42.4993 7.73697L13.1293 24.677C12.3226 25.117 11.8459 25.997 11.8459 26.9136V61.087C11.8459 62.0036 12.3226 62.847 13.1293 63.3236L42.4993 80.2636C43.4526 80.8136 44.5893 80.8136 45.5426 80.2636L74.9126 63.3236C75.7193 62.8836 76.196 62.0036 76.196 61.087V26.9136C76.196 25.997 75.7193 25.1536 74.9126 24.677H74.876ZM73.0426 28.2703L44.6993 77.367C44.5159 77.697 44.0026 77.5503 44.0026 77.1836V45.027C44.0026 44.367 43.6726 43.7803 43.0859 43.4503L15.2559 27.3903C14.9259 27.207 15.0726 26.6936 15.4393 26.6936H72.126C72.9326 26.6936 73.446 27.5736 73.0426 28.2703Z" fill="white"/>
</g>
</svg>
